<?xml version="1.0" encoding="UTF-8" standalone="no"?>
<!DOCTYPE svg PUBLIC "-//W3C//DTD SVG 1.1//EN"
 "http://www.w3.org/Graphics/SVG/1.1/DTD/svg11.dtd">
<!-- Generated by graphviz version 2.40.1 (20161225.0304)
 -->
<!-- Title: fsm Pages: 1 -->
<svg width="284pt" height="125pt"
 viewBox="0.00 0.00 283.61 125.05" xmlns="http://www.w3.org/2000/svg" xmlns:xlink="http://www.w3.org/1999/xlink">
<g id="graph0" class="graph" transform="scale(1 1) rotate(0) translate(4 121.0456)">
<title>fsm</title>
<polygon fill="#ffffff" stroke="transparent" points="-4,4 -4,-121.0456 279.6125,-121.0456 279.6125,4 -4,4"/>
<!-- locked -->
<g id="node1" class="node">
<title>locked</title>
<ellipse fill="none" stroke="#000000" cx="94.4393" cy="-42.5228" rx="33.8596" ry="33.8596"/>
<text text-anchor="middle" x="94.4393" y="-38.3228" font-family="Times,serif" font-size="14.00" fill="#000000">locked</text>
</g>
<!-- locked&#45;&gt;locked -->
<g id="edge3" class="edge">
<title>locked&#45;&gt;locked</title>
<path fill="none" stroke="#000000" d="M84.6893,-74.8224C84.6893,-85.5889 87.9393,-94.2021 94.4393,-94.2021 98.7049,-94.2021 101.5709,-90.4927 103.0372,-84.8996"/>
<polygon fill="#000000" stroke="#000000" points="106.5307,-85.1552 104.1893,-74.8224 99.576,-84.3601 106.5307,-85.1552"/>
<text text-anchor="start" x="81.2152" y="-98.0021" font-family="Times,serif" font-style="italic" font-size="14.00" fill="#000000">push</text>
</g>
<!-- unlocked -->
<g id="node2" class="node">
<title>unlocked</title>
<ellipse fill="none" stroke="#000000" cx="233.0897" cy="-42.5228" rx="42.5456" ry="42.5456"/>
<text text-anchor="middle" x="233.0897" y="-38.3228" font-family="Times,serif" font-size="14.00" fill="#000000">unlocked</text>
</g>
<!-- locked&#45;&gt;unlocked -->
<g id="edge1" class="edge">
<title>locked&#45;&gt;unlocked</title>
<path fill="none" stroke="#000000" d="M128.357,-42.5228C143.9721,-42.5228 162.8633,-42.5228 180.2782,-42.5228"/>
<polygon fill="#000000" stroke="#000000" points="180.3254,-46.0229 190.3254,-42.5228 180.3254,-39.0229 180.3254,-46.0229"/>
<text text-anchor="start" x="147.291" y="-46.3228" font-family="Times,serif" font-style="italic" font-size="14.00" fill="#000000">coin</text>
</g>
<!-- unlocked&#45;&gt;locked -->
<g id="edge4" class="edge">
<title>unlocked&#45;&gt;locked</title>
<path fill="none" stroke="#000000" d="M192.9364,-27.8606C178.2502,-24.1791 161.4738,-21.9252 146.1186,-24.5228 142.6409,-25.1111 139.085,-25.9073 135.5467,-26.8388"/>
<polygon fill="#000000" stroke="#000000" points="134.2917,-23.5603 125.7014,-29.7617 136.284,-30.2709 134.2917,-23.5603"/>
<text text-anchor="start" x="146.1186" y="-28.3228" font-family="Times,serif" font-style="italic" font-size="14.00" fill="#000000">push</text>
</g>
<!-- unlocked&#45;&gt;unlocked -->
<g id="edge2" class="edge">
<title>unlocked&#45;&gt;unlocked</title>
<path fill="none" stroke="#000000" d="M219.6564,-82.9692C220.2447,-94.3271 224.7225,-103.0456 233.0897,-103.0456 238.7114,-103.0456 242.5773,-99.1099 244.6875,-93.0823"/>
<polygon fill="#000000" stroke="#000000" points="248.1809,-93.4335 246.5229,-82.9692 241.2934,-92.1834 248.1809,-93.4335"/>
<text text-anchor="start" x="221.0379" y="-106.8456" font-family="Times,serif" font-style="italic" font-size="14.00" fill="#000000">coin</text>
</g>
<!-- initial -->
<g id="node3" class="node">
<title>initial</title>
<ellipse fill="#000000" stroke="#000000" cx="11.88" cy="-42.5228" rx="11.88" ry="11.88"/>
</g>
<!-- initial&#45;&gt;locked -->
<g id="edge5" class="edge">
<title>initial&#45;&gt;locked</title>
<path fill="none" stroke="#000000" d="M24.0619,-42.5228C31.186,-42.5228 40.6626,-42.5228 50.3467,-42.5228"/>
<polygon fill="#000000" stroke="#000000" points="50.4237,-46.0229 60.4236,-42.5228 50.4236,-39.0229 50.4237,-46.0229"/>
</g>
</g>
</svg>
