<?xml version="1.0" encoding="UTF-8" standalone="no"?>
<!DOCTYPE svg PUBLIC "-//W3C//DTD SVG 1.1//EN"
 "http://www.w3.org/Graphics/SVG/1.1/DTD/svg11.dtd">
<!-- Generated by graphviz version 2.40.1 (20161225.0304)
 -->
<!-- Title: fsm Pages: 1 -->
<svg width="1745pt" height="405pt"
 viewBox="0.00 0.00 1745.38 405.00" xmlns="http://www.w3.org/2000/svg" xmlns:xlink="http://www.w3.org/1999/xlink">
<g id="graph0" class="graph" transform="scale(1 1) rotate(0) translate(4 401)">
<title>fsm</title>
<polygon fill="#ffffff" stroke="transparent" points="-4,4 -4,-401 1741.3766,-401 1741.3766,4 -4,4"/>
<!-- unmonitored -->
<g id="node1" class="node">
<title>unmonitored</title>
<ellipse fill="none" stroke="#000000" cx="116.06" cy="-244" rx="55.1008" ry="55.1008"/>
<text text-anchor="middle" x="116.06" y="-239.8" font-family="Times,serif" font-size="14.00" fill="#000000">unmonitored</text>
</g>
<!-- unmonitored&#45;&gt;unmonitored -->
<g id="edge12" class="edge">
<title>unmonitored&#45;&gt;unmonitored</title>
<path fill="none" stroke="#000000" d="M103.0346,-298.0199C104.4057,-309.2351 108.7475,-317.3 116.06,-317.3 120.9731,-317.3 124.5452,-313.6594 126.7762,-307.8687"/>
<polygon fill="#000000" stroke="#000000" points="130.2102,-308.5548 129.0854,-298.0199 123.395,-306.9568 130.2102,-308.5548"/>
<text text-anchor="start" x="32.1968" y="-321.1" font-family="Times,serif" font-style="italic" font-size="14.00" fill="#000000">unmonitor / setAutoStartOff()</text>
</g>
<!-- stopped -->
<g id="node2" class="node">
<title>stopped</title>
<ellipse fill="none" stroke="#000000" cx="462.9558" cy="-207" rx="37.7352" ry="37.7352"/>
<text text-anchor="middle" x="462.9558" y="-202.8" font-family="Times,serif" font-size="14.00" fill="#000000">stopped</text>
</g>
<!-- unmonitored&#45;&gt;stopped -->
<g id="edge1" class="edge">
<title>unmonitored&#45;&gt;stopped</title>
<path fill="none" stroke="#000000" d="M171.6658,-239.7139C220.5701,-235.7561 293.6464,-229.3849 357.0866,-222 376.1344,-219.7827 397.0483,-216.9124 415.2208,-214.2772"/>
<polygon fill="#000000" stroke="#000000" points="415.8997,-217.7152 425.2861,-212.8014 414.8841,-210.7892 415.8997,-217.7152"/>
<text text-anchor="start" x="251.0578" y="-242.8" font-family="Times,serif" font-style="italic" font-size="14.00" fill="#000000">monitor</text>
</g>
<!-- starting -->
<g id="node3" class="node">
<title>starting</title>
<ellipse fill="none" stroke="#000000" cx="1051.3611" cy="-321" rx="36.7663" ry="36.7663"/>
<text text-anchor="middle" x="1051.3611" y="-316.8" font-family="Times,serif" font-size="14.00" fill="#000000">starting</text>
</g>
<!-- unmonitored&#45;&gt;starting -->
<g id="edge2" class="edge">
<title>unmonitored&#45;&gt;starting</title>
<path fill="none" stroke="#000000" d="M169.962,-257.4852C254.3494,-277.8309 423.0944,-315.4391 568.8249,-329 737.2851,-344.676 780.4397,-335.6284 949.4978,-329 967.406,-328.2979 987.0445,-326.9039 1004.2583,-325.4736"/>
<polygon fill="#000000" stroke="#000000" points="1004.9616,-328.9262 1014.6258,-324.5841 1004.3632,-321.9518 1004.9616,-328.9262"/>
<text text-anchor="start" x="375.0866" y="-329.8" font-family="Times,serif" font-style="italic" font-size="14.00" fill="#000000">start / setAutoStartOn() / start()</text>
</g>
<!-- stopped&#45;&gt;unmonitored -->
<g id="edge7" class="edge">
<title>stopped&#45;&gt;unmonitored</title>
<path fill="none" stroke="#000000" d="M425.5035,-200.5792C372.1221,-192.7687 271.5202,-183.0413 189.3601,-204 183.6007,-205.4692 177.8059,-207.4938 172.1349,-209.8582"/>
<polygon fill="#000000" stroke="#000000" points="170.3979,-206.8028 162.7358,-214.1201 173.2887,-213.178 170.3979,-206.8028"/>
<text text-anchor="start" x="189.3601" y="-207.8" font-family="Times,serif" font-style="italic" font-size="14.00" fill="#000000">unmonitor / setAutoStartOff()</text>
</g>
<!-- stopped&#45;&gt;starting -->
<g id="edge3" class="edge">
<title>stopped&#45;&gt;starting</title>
<path fill="none" stroke="#000000" d="M495.676,-225.6064C516.0436,-236.2186 543.1646,-248.6386 568.8249,-255 733.3414,-295.7848 784.4607,-239.3762 949.4978,-278 970.0298,-282.8051 991.6973,-291.4042 1009.7453,-299.6563"/>
<polygon fill="#000000" stroke="#000000" points="1008.2883,-302.8388 1018.8281,-303.9181 1011.2618,-296.5017 1008.2883,-302.8388"/>
<text text-anchor="start" x="671.2922" y="-281.8" font-family="Times,serif" font-style="italic" font-size="14.00" fill="#000000">start / setAutoStartOn() / start()</text>
</g>
<!-- stopped&#45;&gt;starting -->
<g id="edge21" class="edge">
<title>stopped&#45;&gt;starting</title>
<path fill="none" stroke="#000000" d="M500.6398,-211.4118C520.8374,-213.651 546.1626,-216.2584 568.8249,-218 611.0501,-221.245 913.6317,-214.4808 949.4978,-237 963.6467,-245.8837 955.9655,-257.9121 967.4978,-270 979.2845,-282.3545 994.6926,-292.851 1009.0815,-301.0513"/>
<polygon fill="#000000" stroke="#000000" points="1007.4143,-304.1288 1017.8673,-305.8565 1010.7733,-297.9873 1007.4143,-304.1288"/>
<text text-anchor="start" x="568.8249" y="-240.8" font-family="Times,serif" font-style="italic" font-size="14.00" fill="#000000">tick </text>
<text text-anchor="start" x="593.3181" y="-240.8" font-family="Times,serif" font-style="italic" font-size="14.00" fill="#7f7f7f">[ !isRunning and shouldAutoStart ]</text>
<text text-anchor="start" x="790.863" y="-240.8" font-family="Times,serif" font-style="italic" font-size="14.00" fill="#000000"> &#160;&#160;/ setAutoStartOn() / start()</text>
</g>
<!-- running -->
<g id="node4" class="node">
<title>running</title>
<ellipse fill="none" stroke="#000000" cx="1406.332" cy="-171" rx="37.7352" ry="37.7352"/>
<text text-anchor="middle" x="1406.332" y="-166.8" font-family="Times,serif" font-size="14.00" fill="#000000">running</text>
</g>
<!-- stopped&#45;&gt;running -->
<g id="edge16" class="edge">
<title>stopped&#45;&gt;running</title>
<path fill="none" stroke="#000000" d="M486.2113,-176.7579C505.5526,-154.2323 535.2684,-125.1874 568.8249,-112 685.9791,-65.9596 1009.8273,-94.0283 1135.2243,-105 1232.1054,-113.4767 1258.4148,-112.3645 1350.7146,-143 1355.2226,-144.4963 1359.8215,-146.3037 1364.3473,-148.2715"/>
<polygon fill="#000000" stroke="#000000" points="1362.9356,-151.4747 1373.4819,-152.4873 1365.869,-145.1189 1362.9356,-151.4747"/>
<text text-anchor="start" x="1002.1697" y="-108.8" font-family="Times,serif" font-style="italic" font-size="14.00" fill="#000000">tick </text>
<text text-anchor="start" x="1026.6628" y="-108.8" font-family="Times,serif" font-style="italic" font-size="14.00" fill="#7f7f7f">[ isRunning ]</text>
</g>
<!-- restarting -->
<g id="node6" class="node">
<title>restarting</title>
<ellipse fill="none" stroke="#000000" cx="1051.3611" cy="-172" rx="43.506" ry="43.506"/>
<text text-anchor="middle" x="1051.3611" y="-167.8" font-family="Times,serif" font-size="14.00" fill="#000000">restarting</text>
</g>
<!-- stopped&#45;&gt;restarting -->
<g id="edge6" class="edge">
<title>stopped&#45;&gt;restarting</title>
<path fill="none" stroke="#000000" d="M492.3271,-182.7991C512.4825,-167.8203 540.5973,-149.9739 568.8249,-142 731.6413,-96.0067 782.0418,-117.8538 949.4978,-142 966.4218,-144.4403 984.4535,-149.0503 1000.5688,-153.9375"/>
<polygon fill="#000000" stroke="#000000" points="999.739,-157.3453 1010.3282,-156.9993 1001.8345,-150.6663 999.739,-157.3453"/>
<text text-anchor="start" x="660.4162" y="-145.8" font-family="Times,serif" font-style="italic" font-size="14.00" fill="#000000">restart / setAutoStartOn() / restart()</text>
</g>
<!-- starting&#45;&gt;unmonitored -->
<g id="edge8" class="edge">
<title>starting&#45;&gt;unmonitored</title>
<path fill="none" stroke="#000000" d="M1016.4218,-332.2233C996.951,-337.8911 972.1344,-344.1567 949.4978,-347 870.2263,-356.9572 460.0414,-355.6877 375.0866,-344 290.5136,-332.3648 266.854,-330.8143 189.3601,-295 182.3347,-291.7532 175.2619,-287.8333 168.4273,-283.6262"/>
<polygon fill="#000000" stroke="#000000" points="170.2269,-280.6224 159.9191,-278.1728 166.4494,-286.5158 170.2269,-280.6224"/>
<text text-anchor="start" x="379.0925" y="-355.8" font-family="Times,serif" font-style="italic" font-size="14.00" fill="#000000">unmonitor / setAutoStartOff()</text>
</g>
<!-- starting&#45;&gt;stopped -->
<g id="edge17" class="edge">
<title>starting&#45;&gt;stopped</title>
<path fill="none" stroke="#000000" d="M1014.4111,-318.816C901.7484,-312.1523 570.1248,-292.5016 568.8249,-292 541.0634,-281.2878 514.9368,-260.4704 495.5837,-242.1191"/>
<polygon fill="#000000" stroke="#000000" points="497.8519,-239.4424 488.2468,-234.9709 492.967,-244.4562 497.8519,-239.4424"/>
<text text-anchor="start" x="707.6389" y="-317.8" font-family="Times,serif" font-style="italic" font-size="14.00" fill="#000000">tick </text>
<text text-anchor="start" x="732.1321" y="-317.8" font-family="Times,serif" font-style="italic" font-size="14.00" fill="#7f7f7f">[ !isRunning ]</text>
</g>
<!-- starting&#45;&gt;running -->
<g id="edge13" class="edge">
<title>starting&#45;&gt;running</title>
<path fill="none" stroke="#000000" d="M1088.2155,-323.5671C1148.6764,-325.888 1270.2364,-322.4186 1350.7146,-266 1368.0387,-253.855 1380.7802,-234.4489 1389.6628,-216.3327"/>
<polygon fill="#000000" stroke="#000000" points="1392.9473,-217.5683 1393.9599,-207.022 1386.5915,-214.635 1392.9473,-217.5683"/>
<text text-anchor="start" x="1202.778" y="-325.8" font-family="Times,serif" font-style="italic" font-size="14.00" fill="#000000">tick </text>
<text text-anchor="start" x="1227.2712" y="-325.8" font-family="Times,serif" font-style="italic" font-size="14.00" fill="#7f7f7f">[ isRunning ]</text>
</g>
<!-- running&#45;&gt;unmonitored -->
<g id="edge9" class="edge">
<title>running&#45;&gt;unmonitored</title>
<path fill="none" stroke="#000000" d="M1398.9215,-208.1925C1389.2798,-252.631 1371.2229,-323.1166 1350.7146,-340 1276.1957,-401.3473 1231.5435,-360.7411 1135.2243,-367 683.1657,-396.3752 475.3996,-380.1569 375.0866,-370 291.2601,-361.5124 261.6676,-375.2499 189.3601,-332 175.229,-323.5477 162.5699,-311.3551 151.9093,-298.7267"/>
<polygon fill="#000000" stroke="#000000" points="154.5417,-296.4156 145.5345,-290.8369 149.0969,-300.8149 154.5417,-296.4156"/>
<text text-anchor="start" x="675.2981" y="-386.8" font-family="Times,serif" font-style="italic" font-size="14.00" fill="#000000">unmonitor / setAutoStartOff()</text>
</g>
<!-- running&#45;&gt;stopped -->
<g id="edge19" class="edge">
<title>running&#45;&gt;stopped</title>
<path fill="none" stroke="#000000" d="M1370.9941,-184.0643C1364.317,-186.2491 1357.3467,-188.3411 1350.7146,-190 1256.586,-213.5445 1231.9386,-217.1969 1135.2243,-225 1060.9206,-230.9949 1041.5978,-233.1341 967.4978,-225 959.3516,-224.1058 957.6303,-222.0113 949.4978,-221 789.7431,-201.134 598.3187,-203.0822 510.8283,-205.3793"/>
<polygon fill="#000000" stroke="#000000" points="510.5826,-201.8847 500.6831,-205.6597 510.7761,-208.882 510.5826,-201.8847"/>
<text text-anchor="start" x="999.8386" y="-234.8" font-family="Times,serif" font-style="italic" font-size="14.00" fill="#000000">tick </text>
<text text-anchor="start" x="1024.3318" y="-234.8" font-family="Times,serif" font-style="italic" font-size="14.00" fill="#7f7f7f">[ !isRunning ]</text>
</g>
<!-- stopping -->
<g id="node5" class="node">
<title>stopping</title>
<ellipse fill="none" stroke="#000000" cx="1696.8056" cy="-66" rx="40.6421" ry="40.6421"/>
<text text-anchor="middle" x="1696.8056" y="-61.8" font-family="Times,serif" font-size="14.00" fill="#000000">stopping</text>
</g>
<!-- running&#45;&gt;stopping -->
<g id="edge4" class="edge">
<title>running&#45;&gt;stopping</title>
<path fill="none" stroke="#000000" d="M1443.5072,-165.1249C1490.5387,-156.7577 1573.2354,-138.8931 1638.2346,-108 1644.4608,-105.0408 1650.7199,-101.41 1656.7094,-97.5338"/>
<polygon fill="#000000" stroke="#000000" points="1658.9505,-100.2426 1665.2564,-91.7287 1655.0175,-94.452 1658.9505,-100.2426"/>
<text text-anchor="start" x="1461.9494" y="-165.8" font-family="Times,serif" font-style="italic" font-size="14.00" fill="#000000">stop / setAutoStartOff() / stop()</text>
</g>
<!-- running&#45;&gt;restarting -->
<g id="edge5" class="edge">
<title>running&#45;&gt;restarting</title>
<path fill="none" stroke="#000000" d="M1370.79,-158.4346C1364.1944,-156.5917 1357.3053,-154.9848 1350.7146,-154 1263.9048,-141.0291 1240.6624,-146.3339 1153.2243,-154 1137.2282,-155.4025 1119.9796,-158.0211 1104.3049,-160.8352"/>
<polygon fill="#000000" stroke="#000000" points="1103.4527,-157.4336 1094.2606,-162.702 1104.7318,-164.3158 1103.4527,-157.4336"/>
<text text-anchor="start" x="1153.2243" y="-157.8" font-family="Times,serif" font-style="italic" font-size="14.00" fill="#000000">restart / setAutoStartOn() / restart()</text>
</g>
<!-- stopping&#45;&gt;unmonitored -->
<g id="edge10" class="edge">
<title>stopping&#45;&gt;unmonitored</title>
<path fill="none" stroke="#000000" d="M1658.4403,-51.516C1603.4457,-32.0878 1498.6429,0 1406.332,0 462.9558,0 462.9558,0 462.9558,0 325.1274,0 293.938,-56.2219 189.3601,-146 175.214,-158.1442 162.1534,-173.4773 151.0962,-188.3864"/>
<polygon fill="#000000" stroke="#000000" points="148.1804,-186.4458 145.1653,-196.6026 153.8562,-190.5429 148.1804,-186.4458"/>
<text text-anchor="start" x="967.4978" y="-3.8" font-family="Times,serif" font-style="italic" font-size="14.00" fill="#000000">unmonitor / setAutoStartOff()</text>
</g>
<!-- stopping&#45;&gt;stopped -->
<g id="edge20" class="edge">
<title>stopping&#45;&gt;stopped</title>
<path fill="none" stroke="#000000" d="M1656.1643,-64.4327C1650.1533,-64.253 1644.0332,-64.099 1638.2346,-64 1559.897,-62.6629 1540.293,-63.0791 1461.9494,-64 1263.4362,-66.3335 722.5503,40.6243 568.8249,-85 540.9405,-107.7871 573.1832,-135.7707 550.8249,-164 540.1714,-177.451 524.241,-186.9823 508.8582,-193.5928"/>
<polygon fill="#000000" stroke="#000000" points="507.4099,-190.4019 499.403,-197.3403 509.9891,-196.9094 507.4099,-190.4019"/>
<text text-anchor="start" x="1200.447" y="-62.8" font-family="Times,serif" font-style="italic" font-size="14.00" fill="#000000">tick </text>
<text text-anchor="start" x="1224.9402" y="-62.8" font-family="Times,serif" font-style="italic" font-size="14.00" fill="#7f7f7f">[ !isRunning ]</text>
</g>
<!-- stopping&#45;&gt;running -->
<g id="edge15" class="edge">
<title>stopping&#45;&gt;running</title>
<path fill="none" stroke="#000000" d="M1655.8731,-66.1063C1597.469,-66.9362 1493.7618,-71.1262 1461.9494,-90 1447.1274,-98.7937 1435.342,-113.2623 1426.505,-127.557"/>
<polygon fill="#000000" stroke="#000000" points="1423.3753,-125.9768 1421.3829,-136.3826 1429.4296,-129.4905 1423.3753,-125.9768"/>
<text text-anchor="start" x="1500.9006" y="-93.8" font-family="Times,serif" font-style="italic" font-size="14.00" fill="#000000">tick </text>
<text text-anchor="start" x="1525.3938" y="-93.8" font-family="Times,serif" font-style="italic" font-size="14.00" fill="#7f7f7f">[ isRunning ]</text>
</g>
<!-- restarting&#45;&gt;unmonitored -->
<g id="edge11" class="edge">
<title>restarting&#45;&gt;unmonitored</title>
<path fill="none" stroke="#000000" d="M1013.6955,-150.2049C999.2149,-141.7702 982.5516,-131.9964 967.4978,-123 959.4499,-118.1904 958.5229,-114.5394 949.4978,-112 703.3162,-42.7329 625.8275,-95.6781 375.0866,-146 292.1117,-162.6525 266.0224,-152.1526 189.3601,-188 181.54,-191.6567 173.7631,-196.2565 166.358,-201.24"/>
<polygon fill="#000000" stroke="#000000" points="164.0127,-198.6109 157.8555,-207.233 168.0456,-204.3325 164.0127,-198.6109"/>
<text text-anchor="start" x="379.0925" y="-149.8" font-family="Times,serif" font-style="italic" font-size="14.00" fill="#000000">unmonitor / setAutoStartOff()</text>
</g>
<!-- restarting&#45;&gt;stopped -->
<g id="edge18" class="edge">
<title>restarting&#45;&gt;stopped</title>
<path fill="none" stroke="#000000" d="M1007.8399,-169.1023C922.9321,-164.2265 729.4353,-156.9343 568.8249,-179 548.7082,-181.7638 526.9494,-187.0951 508.4203,-192.3706"/>
<polygon fill="#000000" stroke="#000000" points="507.3856,-189.0265 498.7712,-195.1943 509.3517,-195.7447 507.3856,-189.0265"/>
<text text-anchor="start" x="707.6389" y="-182.8" font-family="Times,serif" font-style="italic" font-size="14.00" fill="#000000">tick </text>
<text text-anchor="start" x="732.1321" y="-182.8" font-family="Times,serif" font-style="italic" font-size="14.00" fill="#7f7f7f">[ !isRunning ]</text>
</g>
<!-- restarting&#45;&gt;running -->
<g id="edge14" class="edge">
<title>restarting&#45;&gt;running</title>
<path fill="none" stroke="#000000" d="M1094.8875,-171.8774C1161.7144,-171.6891 1289.1169,-171.3302 1358.4646,-171.1348"/>
<polygon fill="#000000" stroke="#000000" points="1358.6794,-174.6344 1368.6695,-171.1061 1358.6596,-167.6344 1358.6794,-174.6344"/>
<text text-anchor="start" x="1202.778" y="-175.8" font-family="Times,serif" font-style="italic" font-size="14.00" fill="#000000">tick </text>
<text text-anchor="start" x="1227.2712" y="-175.8" font-family="Times,serif" font-style="italic" font-size="14.00" fill="#7f7f7f">[ isRunning ]</text>
</g>
<!-- initial -->
<g id="node7" class="node">
<title>initial</title>
<ellipse fill="#000000" stroke="#000000" cx="11.88" cy="-244" rx="11.88" ry="11.88"/>
</g>
<!-- initial&#45;&gt;unmonitored -->
<g id="edge22" class="edge">
<title>initial&#45;&gt;unmonitored</title>
<path fill="none" stroke="#000000" d="M23.8308,-244C30.8782,-244 40.4129,-244 50.6862,-244"/>
<polygon fill="#000000" stroke="#000000" points="50.7052,-247.5001 60.7052,-244 50.7051,-240.5001 50.7052,-247.5001"/>
</g>
</g>
</svg>
